<?xml version="1.0" encoding="UTF-8"?>
<svg id="Calque_1" xmlns="http://www.w3.org/2000/svg" version="1.1" viewBox="0 0 1920 1913.81">
  <!-- Generator: Adobe Illustrator 29.1.0, SVG Export Plug-In . SVG Version: 2.1.0 Build 142)  -->
  <defs>
    <style>
      .st0 {
        fill: #cc2229;
      }
    </style>
  </defs>
  <path class="st0" d="M978.73,1877.89c-245.51,0-476.32-95.61-649.92-269.21C155.21,1435.08,59.6,1204.27,59.6,958.76s95.61-476.32,269.21-649.92C502.41,135.24,733.22,39.63,978.73,39.63s476.32,95.61,649.92,269.21c173.6,173.6,269.21,404.41,269.21,649.92s-95.61,476.32-269.21,649.92c-173.6,173.6-404.41,269.21-649.92,269.21ZM978.73,112.81c-466.46,0-845.95,379.49-845.95,845.95s379.49,845.95,845.95,845.95,845.95-379.49,845.95-845.95S1445.19,112.81,978.73,112.81Z"/>
  <path class="st0" d="M1225.22,1420.57c-177.57,0-341.43-140.86-469.31-271.11-198.52-202.2-272.83-377.13-227.18-534.79,5.69-19.63,16.41-37.84,31.02-52.66l44.28-44.92c26.18-26.56,69.09-26.87,95.66-.69l155.66,153.43c25.34,24.97,25.63,65.91.66,91.25l-36.93,37.46c-29.72,64.31,71.22,179.45,109.56,215.25.16.15.32.3.47.45,126.53,124.72,181.68,98.23,185.6,95.97l47.07-47.75c24.97-25.34,65.9-25.64,91.25-.66l168.58,166.16h0c26.56,26.18,26.87,69.1.69,95.66l-50.71,51.45c-14.98,15.2-33.39,26.3-53.23,32.11-31.37,9.19-62.46,13.39-93.13,13.39Z"/>
</svg>