<?xml version="1.0" encoding="UTF-8"?>
<svg id="Calque_1" xmlns="http://www.w3.org/2000/svg" version="1.1" viewBox="0 0 1831.87 1688.74">
  <!-- Generator: Adobe Illustrator 29.1.0, SVG Export Plug-In . SVG Version: 2.1.0 Build 142)  -->
  <defs>
    <style>
      .st0 {
        fill: #cc2229;
      }

      .st1 {
        fill: none;
        stroke: #cc2229;
        stroke-linecap: round;
        stroke-linejoin: round;
        stroke-width: 73.47px;
      }
    </style>
  </defs>
  <path class="st0" d="M906.67,1619.7c-205.39,0-398.48-79.98-543.71-225.21-145.23-145.23-225.21-338.33-225.21-543.71s79.98-398.48,225.21-543.71c145.23-145.23,338.32-225.21,543.71-225.21s398.48,79.98,543.71,225.21c145.23,145.23,225.21,338.33,225.21,543.71s-79.98,398.48-225.21,543.71c-145.23,145.23-338.33,225.21-543.71,225.21ZM906.67,143.07c-390.23,0-707.7,317.47-707.7,707.7s317.47,707.7,707.7,707.7,707.7-317.47,707.7-707.7S1296.9,143.07,906.67,143.07Z"/>
  <g>
    <path class="st1" d="M906.67,1286.72l255.15-416.17c72.34-117.99,54.34-270.2-43.52-368.07h0c-116.88-116.88-306.38-116.88-423.26,0h0c-97.87,97.87-115.86,250.07-43.52,368.07l255.15,416.17Z"/>
    <circle class="st1" cx="906.67" cy="714.31" r="136.46"/>
  </g>
</svg>