<?xml version="1.0" encoding="UTF-8"?>
<svg id="Calque_1" xmlns="http://www.w3.org/2000/svg" version="1.1" viewBox="0 0 1920 1890.04">
  <!-- Generator: Adobe Illustrator 29.1.0, SVG Export Plug-In . SVG Version: 2.1.0 Build 142)  -->
  <defs>
    <style>
      .st0 {
        fill: #cc2229;
      }
    </style>
  </defs>
  <path class="st0" d="M939.72,1844.99c-241.45,0-468.45-94.03-639.18-264.76C129.8,1409.5,35.77,1182.5,35.77,941.05s94.03-468.45,264.76-639.19C471.26,131.13,698.26,37.1,939.72,37.1s468.45,94.03,639.19,264.76c170.73,170.73,264.76,397.73,264.76,639.19s-94.03,468.45-264.76,639.18c-170.73,170.73-397.73,264.76-639.19,264.76ZM939.72,109.08c-458.75,0-831.97,373.22-831.97,831.97s373.22,831.97,831.97,831.97,831.97-373.22,831.97-831.97S1398.47,109.08,939.72,109.08Z"/>
  <path class="st0" d="M1323.64,615.81h-767.84c-52.04,0-94.38,42.34-94.38,94.38v461.7c0,52.04,42.34,94.38,94.38,94.38h767.84c52.04,0,94.38-42.34,94.38-94.38v-461.7c0-52.04-42.34-94.38-94.38-94.38ZM770.19,1009.7l-173.22,173.22c-4.61,4.61-10.65,6.91-16.69,6.91s-12.08-2.3-16.69-6.91c-9.21-9.22-9.21-24.15,0-33.37l173.22-173.22c9.22-9.21,24.16-9.21,33.37,0,9.21,9.22,9.21,24.15,0,33.37ZM944.04,1090.23c-5.76,0-11.52-2.1-16.05-6.31l-363.77-337.78c-9.55-8.87-10.1-23.8-1.24-33.35,8.87-9.55,23.79-10.11,33.35-1.24l347.31,322.5,330.37-322.11c9.33-9.1,24.28-8.9,33.37.42,9.1,9.33,8.91,24.27-.42,33.37l-346.44,337.78c-4.58,4.46-10.53,6.7-16.48,6.7ZM1315.84,1182.92c-4.61,4.61-10.65,6.91-16.69,6.91s-12.08-2.3-16.69-6.91l-173.22-173.22c-9.21-9.22-9.21-24.16,0-33.37,9.22-9.21,24.16-9.21,33.37,0l173.22,173.22c9.21,9.22,9.21,24.16,0,33.37Z"/>
</svg>