<?xml version="1.0" encoding="UTF-8"?>
<svg id="Layer_1" xmlns="http://www.w3.org/2000/svg" version="1.1" viewBox="0 0 3235.36 1790.52">
  <!-- Generator: Adobe Illustrator 29.1.0, SVG Export Plug-In . SVG Version: 2.1.0 Build 142)  -->
  <defs>
    <style>
      .st0 {
        fill: #4285f4;
      }

      .st1 {
        fill: #34a853;
      }

      .st2 {
        fill: #fbbc04;
      }

      .st3 {
        fill: #ea4335;
      }

      .st4 {
        fill: #5f6368;
      }
    </style>
  </defs>
  <path class="st4" d="M1553.76,1007.7v326.08h-103.45v-805.28h274.36c66.15-1.38,130.1,23.72,177.66,69.71,48.11,43.28,75.17,105.24,74.21,169.95,1.38,65.07-25.73,127.49-74.21,170.91-47.98,45.75-107.2,68.6-177.66,68.56h-170.91v.06ZM1553.76,627.64v281.11h173.48c38.46,1.14,75.61-13.97,102.35-41.64,54.35-52.84,55.57-139.73,2.73-194.07-.9-.92-1.81-1.84-2.73-2.73-26.42-28.26-63.69-43.81-102.35-42.73h-173.48v.06Z"/>
  <path class="st4" d="M2214.92,764.82c76.46,0,136.82,20.43,181.06,61.3,44.25,40.86,66.35,96.89,66.31,168.09v339.58h-98.95v-76.46h-4.5c-42.84,62.97-99.81,94.45-170.91,94.45-60.7,0-111.48-17.99-152.34-53.97-39.72-33.45-62.24-83.02-61.3-134.93,0-57.01,21.55-102.35,64.64-136.02,43.09-33.67,100.62-50.55,172.58-50.63,61.43,0,112.01,11.24,151.77,33.73v-23.65c.24-35.39-15.45-69.01-42.73-91.56-27.36-24.68-63.01-38.15-99.85-37.72-57.78,0-103.51,24.37-137.18,73.12l-91.11-57.38c50.12-71.96,124.29-107.94,222.51-107.94ZM2081.08,1165.12c-.14,26.71,12.64,51.85,34.31,67.47,22.88,18,51.28,27.53,80.38,26.99,43.65-.07,85.5-17.45,116.36-48.32,34.27-32.25,51.4-70.1,51.4-113.53-32.25-25.7-77.23-38.55-134.93-38.55-42.02,0-77.06,10.13-105.12,30.39-28.34,20.56-42.41,45.56-42.41,75.56h0Z"/>
  <path class="st4" d="M3030.29,782.81l-345.42,793.84h-106.79l128.18-277.77-227.13-516.08h112.44l164.17,395.8h2.25l159.67-395.8h112.64Z"/>
  <path class="st0" d="M998.03,1277.75h.06c87.32-80.51,137.63-199.57,137.63-340.35.06-31.55-2.63-62.97-7.97-94.07h-436.28v178.17h249.88c-10.34,57.51-43.69,108.27-92.4,140.59v.06l149.07,115.59Z"/>
  <path class="st1" d="M431.77,1015.41c36.62,109.62,139.04,190.96,259.71,190.96,62.52,0,115.98-16.06,157.48-44.21l149.07,115.59.06.06c-76.65,70.68-181.77,111.67-306.61,111.67-174.9,0-334.82-98.63-413.34-254.89l153.63-119.19Z"/>
  <path class="st2" d="M431.77,838.33c-19.34,57.44-19.34,119.64,0,177.08l-153.63,119.19c-65.67-130.69-65.67-284.77,0-415.46l153.63,119.19Z"/>
  <path class="st3" d="M691.48,647.37c65.97-1.08,129.72,23.85,177.47,69.39h0l132.04-132.04c-83.73-78.64-194.65-121.82-309.51-120.47-174.88,0-334.81,98.63-413.34,254.89l153.63,119.19c36.62-109.62,139.04-190.96,259.71-190.96Z"/>
</svg>