<?xml version="1.0" encoding="UTF-8"?>
<svg id="Layer_2" xmlns="http://www.w3.org/2000/svg" version="1.1" viewBox="0 0 5196.99 3508.78">
  <!-- Generator: Adobe Illustrator 29.1.0, SVG Export Plug-In . SVG Version: 2.1.0 Build 142)  -->
  <defs>
    <style>
      .st0 {
        fill: #0a2641;
        fill-rule: evenodd;
      }
    </style>
  </defs>
  <path className="st0" d="M2930.73,1536.94c0-43.33-20.98-77.52-61.1-77.52s-64.65,34.19-64.65,77.18c0,50.94,28.77,76.67,70.06,76.67,20.14,0,35.37-4.56,46.88-11v-33.85c-11.51,5.76-24.71,9.31-41.46,9.31s-30.97-5.76-32.83-25.72h82.75c0-2.21.34-11,.34-15.06h.02ZM2847.19,1520.87c0-19.13,11.68-27.08,22.34-27.08s21.33,7.95,21.33,27.08h-43.67ZM2739.73,1459.44c-16.59,0-27.24,7.78-33.17,13.2l-2.21-10.49h-37.3v197.34l42.31-8.97.17-47.9c6.1,4.4,15.06,10.66,29.96,10.66,30.29,0,57.88-24.29,57.88-78.02-.17-49.08-28.09-75.83-57.72-75.83h.08ZM2729.57,1576.05c-9.98,0-15.9-3.56-19.97-7.95l-.17-62.8c4.4-4.91,10.49-8.29,20.14-8.29,15.4,0,26.06,17.26,26.06,39.43s-10.49,39.61-26.06,39.61ZM2608.83,1449.45l42.48-9.13v-34.35l-42.48,8.97v34.51ZM2608.83,1462.32h42.48v148.09h-42.48v-148.09ZM2563.3,1474.83l-2.71-12.52h-36.56v148.1h42.31v-100.37c9.98-13.03,26.91-10.66,32.16-8.8v-38.92c-5.42-2.03-25.21-5.76-35.2,12.52h0ZM2478.68,1425.51l-41.29,8.81-.17,135.56c0,25.05,18.79,43.49,43.83,43.49,13.88,0,24.03-2.54,29.62-5.6v-34.36c-5.42,2.21-32.16,9.98-32.16-15.06v-59.99h32.16v-36.05h-32.17l.18-36.81ZM2364.28,1505.22c0-6.6,5.42-9.13,14.39-9.13,14.64.31,29,4.02,41.96,10.82v-39.69c-14.05-5.6-27.92-7.78-41.96-7.78-34.36,0-57.2,17.94-57.2,47.9,0,46.71,64.31,39.26,64.31,59.41,0,7.78-6.77,10.32-16.25,10.32-14.05,0-31.99-5.76-46.2-13.55v40.27c15.74,6.77,31.66,9.57,46.2,9.57,35.2,0,59.41-17.43,59.41-47.73-.17-50.43-64.65-41.46-64.65-60.42h0Z"/>
</svg>