<?xml version="1.0" encoding="UTF-8"?>
<svg id="Calque_1" xmlns="http://www.w3.org/2000/svg" version="1.1" viewBox="0 0 1920 1890">
  <!-- Generator: Adobe Illustrator 29.0.1, SVG Export Plug-In . SVG Version: 2.1.0 Build 192)  -->
  <defs>
    <style>
      .st0 {
        fill: #f3ca31;
      }
    </style>
  </defs>
  <path class="st0" d="M939.7,1845c-241.5,0-468.5-94-639.2-264.8C129.8,1409.5,35.8,1182.5,35.8,941s94-468.5,264.8-639.2C471.3,131.1,698.3,37.1,939.7,37.1s468.4,94,639.2,264.8c170.7,170.7,264.8,397.7,264.8,639.2s-94,468.4-264.8,639.2-397.7,264.8-639.2,264.8h0ZM939.7,109.1c-458.8,0-832,373.2-832,832s373.2,832,832,832,832-373.2,832-832S1398.5,109.1,939.7,109.1Z"/>
  <path class="st0" d="M1323.6,615.8h-767.8c-52,0-94.4,42.3-94.4,94.4v461.7c0,52,42.3,94.4,94.4,94.4h767.8c52,0,94.4-42.3,94.4-94.4v-461.7c0-52-42.3-94.4-94.4-94.4ZM770.2,1009.7l-173.2,173.2c-4.6,4.6-10.7,6.9-16.7,6.9s-12.1-2.3-16.7-6.9c-9.2-9.2-9.2-24.2,0-33.4l173.2-173.2c9.2-9.2,24.2-9.2,33.4,0,9.2,9.2,9.2,24.2,0,33.4h0ZM944,1090.2c-5.8,0-11.5-2.1-16-6.3l-363.8-337.8c-9.5-8.9-10.1-23.8-1.2-33.3,8.9-9.5,23.8-10.1,33.3-1.2l347.3,322.5,330.4-322.1c9.3-9.1,24.3-8.9,33.4.4,9.1,9.3,8.9,24.3-.4,33.4l-346.4,337.8c-4.6,4.5-10.5,6.7-16.5,6.7h0ZM1315.8,1182.9c-4.6,4.6-10.7,6.9-16.7,6.9s-12.1-2.3-16.7-6.9l-173.2-173.2c-9.2-9.2-9.2-24.2,0-33.4,9.2-9.2,24.2-9.2,33.4,0l173.2,173.2c9.2,9.2,9.2,24.2,0,33.4h0Z"/>
</svg>